# xmcd CD database file generated by LOLA_Freedb v0.9beta0
#
# Track frame offsets:
#      150
#      21507
#      42596
#      57476
#      72317
#      81611
#      110941
#      125644
#      143182
#      153796
#
# Disc length: 2373 seconds
#
# Revision: 0
# Processed by: cddbd v1.5.2PL0 Copyright (c) Steve Scherf et al.
# Submitted via: LOLA_Freedb v0.9beta0
#
DISCID=9d09430a
DTITLE=Rodriguez - Coming From Reality
DYEAR=1971
DGENRE=
TTITLE0=Rodriguez - Climb Up On My Music
TTITLE1=Rodriguez - A Most Disgusting Song
TTITLE2=Rodriguez - I Think Of You
TTITLE3=Rodriguez - Heikki's Suburbia Bus Tour
TTITLE4=Rodriguez - Silver Words
TTITLE5=Rodriguez - Sandrevan Lullaby Lifestyles
TTITLE6=Rodriguez - To Whom It May Concern
TTITLE7=Rodriguez - It Started Out So Nice
TTITLE8=Rodriguez - Halfway Up The Stairs
TTITLE9=Rodriguez - Cause
EXTD=From original Cassette
EXTT0=
EXTT1=
EXTT2=
EXTT3=
EXTT4=
EXTT5=
EXTT6=
EXTT7=
EXTT8=
EXTT9=
PLAYORDER=
